<?xml version='1.0' encoding='utf-8'?>
<svg xmlns="http://www.w3.org/2000/svg" version="1.1" id="Layer_1" x="0px" y="0px" viewBox="0 0 2560 859.96" enable-background="new 0 0 2560 859.96"> <path d="M2558.306,432.849c-1.313-0.187-2.813-0.88-3.91-0.478c-6.897,2.53-9.018-3.717-8.671-6.956 c0.591-5.515-0.589-10.939,0.317-16.294c0.316-1.867,0.161-3.643-1.399-3.749c-7.012-0.475-13.874-3.731-20.837-2.393 c-7.923,1.523-9.66,1.625-14.463-3.346c-0.706-0.731-2.039-0.811-2.911-1.433c-5.142-3.667-9.222,2.752-14.202,1.39 c-8.938-2.444-12.2,6.276-17.52,6.39c-7.044,0.151-14.296,4.961-21.141-0.796c-0.407-0.342-1.3-0.299-1.912-0.172 c-10.024,2.084-12.454,1.454-20.45-4.829c-1.663-1.306-4.907-1.316-5.52-0.073c-4.205,8.524-80.321,5.872-106.354,12.368 c-11.059,2.759-5.158-5.31-13.142-1.989c-1.557,0.648-1.34,2.535-0.864,3.481c2.966,5.884,1.018,12.126,1.708,18.14 c1.008,8.764-8.648,1.197-9.07,7.604c-1.226,18.619-0.76,119.509-0.736,126.249c0.033,9.38-8.999,27.488-11.283,19.426 c-0.529-1.868,0.178-4.08-0.077-5.793c-0.831-5.575,4.689-9.51,1.467-16.631c-3.76-8.309-2.663-18.872-3.34-28.48 c-0.168-2.389-0.957-5.219,1.79-7.279c2.936-2.203-1.532-2.828-1.71-13.12c-0.023-1.333-1.616-87.09-2.684-130.811 c-3.365-137.821,15.688-115.897-21.377-125.045c-2.346-0.579-4.65-1.242-4.183-4.698c0.558-4.126-3.51-4.129-4.462-2.646 c-3.189,4.969-6.471,0.335-6.796-0.617c-1.068-3.126-3.541-1.817-5.171-2.737c-11.784-6.645-20.538,2.851-47.566,2.669 c-5.775-0.039-10.507-0.162-6.285,8.742c-9.322-2.893-16.387,3.184-24.618,2.344c-2.613-0.267-5.852,2.296-3.632,6.521 c2.056,3.912,2.32,276.997,1.839,285.52c-0.332,5.872,1.467,10.771-6.587,13.616c-11.039,3.9-15.173-5.994-11.905-9.241 c6.352-6.311-1.598-11.065-1.912-16.809c0,0,0.527-64.794,0.518-65.014c-0.928-21.725-9.116-21.542-11.58-40.253 c-1.06-8.051-7.031-14.294-11.35-21.104c-2.028-3.197-5.419-0.348-7.064-3.177c-4.328-7.444-7.828-15.39-8.943-23.771 c-0.943-7.09-4.634-13.811-3.082-21.277c0.671-3.226-4.637-4.442-5.088,0.062c-0.961,9.602,1.835,16.753-0.756,21.085 c-24.459,40.898-30.617,49.461-34.52,64.522c-0.572,2.205,1.796,4.693-0.409,5.772c-5.972,2.922-5.692,7.793-4.451,79.126 c0.245,14.063,0.072,13.524-14.048,12.704c-11.764-0.684-2.188-11.604-6.002-32.168c-1.427-7.69,2.137-14.387,0.764-22.422 c-3.084-18.045,1.039-36.686-0.496-55.144c-6.267-75.316,3.197-89.071-9.302-86.954c-7.263,1.23-5.622-1.442-5.49-34.675 c0.161-40.612,1.345-37.02-0.909-40.993c-5.919,5.389-4.419-8.019-4.419,75.673c-14.647,0-17.434,1.337-15.223,7.707 c0.657,1.893-1.004,4.512-4.391,4.365c-24.779-1.072-25.73-0.112-25.681,9.411c0.919,176.785,2.779,164.538-3.527,164.09 c-7.428-0.527-14.972,0.595-22.468,0.998c-17.472,0.939-2.888,15.511-13.977,14.624c-33.513-2.681-39.047-2.585-39.463-4.858 c-0.787-4.298-4.032-3.626-6.61-3.398c-5.215,0.462-11.285-1.698-14.968,4.44c-0.489,0.814-2.407,1.122-3.641,1.075 c-4.891-0.184-9.646,0.877-14.456,1.231c-6.493,0.478-4.89-1.428-4.474,47.506c0.012,1.405,0.23,2.823-1.121,3.876 c-2.788-4.642-36.148-40.254-39.827-44.12c-2.1-2.208-4.699-8.253-9.558-2.455c-0.171,0.204-1.721-0.307-2.182-0.858 c-2.952-3.534-5.442-3.996-17.964,17.872c-5.182,9.05-12.36,16.81-16.741,26.369c-0.756,1.649-0.773,4.524-3.364,4.362 c-4.264-0.266,1.321-4.629-4.073-5.773c-11.986-2.542-13.389,0.008-14.685-3.753c-1.892-5.492-6.952-6.715-11.711-8.199 c-7.426-2.315-13.152,4.482-20.297,3.865c-3.014-0.26-6.62,1.646-6.251-4.575c0.239-4.04,0.979-8.447,0.354-12.249 c-4.229-25.734,9.626-53.637-3.458-52.188c-2.191,0.243-18.441,7.175-28.369-0.583c-4.854-3.793-6.5-2.521-8.718,1.684 c-2.445,4.635-6.601,5.575-10.484,3.076c-5.466-3.518-6.979-0.281-4.423,3.958c6.426,10.656-4.504,10.431-12.572,10.367 c-14.73-0.117,4.722,18.537-13.532,15.666c-56.209-8.838-62.448-1.589-85.903-1.231c-9.853,0.15,4.675,10.703-7.088,20.64 c-7.896,6.67-4.454,18.526-11.474,25.74c-0.571,0.587,0.371,2.646,0.644,4.22c-2.38-0.405-5.016,1.696-5.774-2.567 c-1.919-10.788-2.667-21.524-0.428-32.323c0.258-1.247,1.135-2.181-0.418-3.379c-15.02-11.586-7.82-11.224-28.509-10.612 c-5.854,0.173-8.906-0.514-8.302-7.594c1.459-17.111-13.222-4.579-27.15-11.124c-4.181-1.965-7.852,2.045-12.681,1.798 c-10.303-0.527-20.847,0.444-31.292,0.768c-6.961,0.216-9.639,2.684-9.726,9.73c-0.395,32.033,2.503,33.129-6.384,33.034 c-4.411-0.047-3.224,12.63-3.126-160.89c0.007-13.305-13.657,3.459-11.867-15.685c1.059-11.341-2.994-12.474-6.679-10.236 c-4.901,2.977-9.048,2.604-44.672,8.219c-2.771,0.437-4.978,0.316-6.306-4.613c-2.993,11.466-2.435-2.52-2.333,60.578 c0.05,31.116,2.346,36.298-8.12,35.462c10.436,1.414,12.66-1.181,13.186,2.049c0.478,2.934-1.967,2.336-3.586,2.363 c-4.248,0.071-3.698,5.763-0.143,5.315c5.81-0.732,3.255,4.263,3.932,10.275c0.567,5.034-1.132,7.135-6.371,5.106 c1.352-4.227,2.268-10.604-2.411-9.945c-3.126,0.44-0.728,2.121-0.808,3.305c-0.243,3.585,1.63,7.546-1.917,10.916 c1.939-9.18-7.618-10.719-10.551-16.595c-0.433-0.867-3.083-0.87-3.231,1.573c-0.107,1.77-0.056,3.551-0.055,5.327 c0.001,2.069-3.171,2.507-2.665-0.192c1.212-6.478-1.648-6.846-7.487-6.806c-5.661,0.039-5.506,1.042-3.673,5.263 c1.341,3.087-2.459,7.085-5.723,6.916c-15.693-0.813-31.219-2.907-46.64-5.818c-5.515-1.041-12.278-0.649-11.225-9.739 c0.366-3.158-3.316-2.796-4.22-1.742c-3.153,3.674-6.832,1.211-10.194,1.779c-6.415,1.083-11.827-3.87-18.132-2.255 c-4.872,1.248-8.839,0.156-11.217-5.382c-1.666,2.295-1.226,4.767-4.096,5.925c-4.518,1.823-11.333-1.044-13.509,6.038 c-0.064,0.209-1.257,0.126-1.918,0.089c-14.884-0.845-29.516,2.338-44.328,2.86c-4.073,0.143-9.881-1.354-11.375,5.711 c-0.356,1.687-3.807,1.101-5.12-0.544c-21.305-26.688-19.836-28.562-25.96-28.073c-15.933,1.272-2.09-6.699-18.738-6.566 c-5.968,0.047-4.1-0.518-4.104-42.639c0-9.52-25.219-7.504-34.514-6.431c-7.111,0.821-14.623-1.96-21.393,2.222 c-2.006,1.239-17.528-8.718-30.819,4.311c-1.009,0.989-1.352,1.033-2.507,0.148c-5.263-4.033-10.242-0.129-15.389,0.668 c-5.217,0.808-12.247-1.203-10.571,8.275c0.04,0.224-0.531,0.789-0.838,0.806c-8.96,0.479-0.399,8.72-2.662,116.182 c-0.195,9.282,0.969,16.733-2.894,15.566c-3.506-1.059-11.724,3.25-11.736-1.265c-0.024-10.197-2.092-20.986,0.608-30.407 c2.255-7.867-3.08-6.085-5.441-7.001c-5.54-2.151-14.547,2.046-13.795-3.38c0.527-3.805,1.047-5.069-32.014-6.386 c-16.337-0.651-13.671-0.359-12.139-66.253c0.223-9.598-7.208-5.917-17.59-8.272c-11.985-2.719-24.401-0.362-36.678-4.874 c-27.55-10.125-28.729-0.289-32.417-8.302c-2.222-4.826-6.984-4.855-8.845,0.097c-2.877,7.657-6.684-0.903-14.781,3.593 c-5.768,3.202-32.555,5.67-41.279,6.526c-4.831,0.474-4.967-2.384-5.371,46.719c-0.714,86.795,1.18,81.131-1.637,82.239 c-6.484,2.551-7.144-13.401-17.459-10.58c-0.494,0.135-4.37-7.118-3.771-12.557c1.392-12.639-6.133-0.97-9.62-3.238 c-7.038-4.577-13.727-3.402-20.493,1.434c-1.649-13.842,3.12-19.657-5.38-24.732c-0.559-0.334-0.358-11.189-0.339-11.84 c0.219-7.276-3.738-2.833-20.588-6.076c-5.366-1.033-8.844,3.411-13.643,4.138c-6.528,0.988-12.808,2.145-19.636,1.883 c-7.493-0.288-15.076,2.672-22.785,3.445c-6.359,0.638-12.291,2.763-16.828,10.346c1.17-28.608-1.028-55.549-1.476-82.956 c-1.023,0.512-1.825,0.64-2.05,1.069c-2.371,4.533-7.039,0.723-10.044,2.827c-0.202-2.608-1.26-5.559-0.388-7.736 c1.076-2.685,0.279-5.013-1.247-5.757c-9.926-4.84-6.958-13.098-7.265-26.571c-0.031-1.336-0.974-3.411-2.07-1.912 c-5.261,7.191-1.594-9.452-4.435-18.822c-3.044,7.349-0.146,16.553-2.155,20.397c-7.411,14.18,7.006,18.038-3.664,24.463 c-8.55,5.149-15.459-2-23.128-0.904c-1.343,0.192-1.732-1.142-1.766-2.314c-0.782-26.922-3.087,2.716-5.894-35.374 c-3.01,2.221-2.069,4.631-2.096,6.669c-0.393,29.653,1.694,31.455-4.105,31.718c-12.99,0.59,4.277,20.886-17.249,15.566 c0.168,10.223-1.433,20.238-2.311,30.288c-3.923,44.938,5.077,53.332-5.165,53.147c-4.2-0.076-3.194,6.776-3.194,63.673 c-7.341,0.217-5.175-1.206-5.316-44.63c-0.03-9.199-4.467-0.624-4.571-14.084c-0.03-3.932,1.568-9.141-5.656-10.971 c-2.026-0.513-32.356-3.259-35.113-4.091c-4.466-1.348-8.682,1.895-13.248,2.463c-18.201,2.265-44.625-1.293-35.477,9.668 c0.616,0.738,2.237,1.213,0.79,2.35c-7.661,6.021-0.389,17.952-1.915,22.987c-0.669,2.206-2.851,5.608-2.16,6.309 c5.665,5.751,0.066,5.568,1.094,46.298c0.087,3.439,1.514,4.162-27.993,1.544c-14.09-1.25-3.336-15.752-8.418-19.304 c-8.124-5.678-5.343-12.893-2.35-18.589c3.87-7.365-4.319-11.984-2.323-18.349c0.05-0.161-0.565-0.716-0.932-0.795 c-8.93-1.924-8.716-8.241-8.521-15.613c0.873-33.045-0.614-66.125,1.47-99.163c0.518-8.221-0.491-9.55-8.871-9 c-11.58,0.76-8.979,5.839-6.982-123.655c0.078-5.028-1.182-7.622-6.585-7.142c-1.484,0.132-3.912,0.647-4.331-0.776 c-3.527-11.979-19.578,0.265-18.467-11.913c1.421-15.577,1.403-91.223,1.413-92.555c0.082-10.679-8.577-0.261-8.028-9.469 c0.679-11.393-1.691-22.484-3.167-33.875c-1.452,1.562,0.448,5.063-3.423,4.778c-3.371-0.248-4.023-2.947-3.913-5.017 c0.376-7.133-1.865-13.99-1.491-21.161c0.163-3.12,1.774-38.063-3.764-43.62c-0.783,6.58-0.655,13.06-0.81,19.532 c-0.315,13.204-5.581,25.839-4.703,39.167c0.367,5.571-0.976,10.915-1.414,16.372c-0.083,1.033,0.149,2.374-1.444,2.498 c-5.721,0.444,0.563-15.376-6.234-30.96c-5.259-12.058,0.523-48.343-3.715-57.427c-1.643,13.422-3.495,27.347-3.285,40.882 c0.201,12.968-3.44,25.78-2.636,38.863c0.114,1.814,0.103,3.538-2.633,3.518c-5.052-0.038-0.921-6.732-3.645-10.675 c-3.948,1.837-3.212,4.47-4.774,41.539c-0.249,5.902-7.325-2.224-7.368,12.203c-0.278,93.031,2.2,89.958-6.319,90.604 c-10.156,0.77-7.232-7.219-8.317,125.217c-0.097,11.794,0.023,11.964-12.083,12.765c-3.397,0.225-4.718,1.164-4.756,4.573 c-1.856,164.664,0.793,159.231-7.316,158.109c-12.572-1.74-5.417,9.783-12.534,8.157c-8.716-1.991-21.924,2.275-22.204-1.502 c-0.264-3.556-3.257-2.508-5.11-2.431c-2.67,0.111-2.512,2.826-2.688,4.62c-0.766,7.831,5.917,2.338,4.779,6.521 c-0.941,3.459-9.405-0.129-8.959,11.169c0.203,5.131-5.411,2.827-8.06,4.59c-4.424,2.945-1.807-10.671-1.211-119.851 c0.014-2.613,0.191-4.933-3.88-3.721c-1.883,0.561-4.201-0.511-6.316-0.478c-0.884,0.014-1.887,1.645-2.684,0.109 c-0.655-1.262-0.068-2.433,1.066-3.46c1.216-1.102,4.448-0.463,3.712-2.866c-2.38-7.773-20.224-0.684-18.075-13.47 c2.897-17.231-0.543,9.437,1.349-72.461c0.025-1.077-0.027-2.73-0.676-3.16c-6.233-4.128-5.491-11.632-8.308-17.372 c-3.122-6.361-11.948-2.502-7.575-9.925c0.807-1.369-6.508-9.349-14.717-9.781c-5.733-0.302-11.456-0.797-17.183-1.208 c0,520.163-2.783,481.064,5.235,481.063c2705.628-0.449,2552.727,3.118,2552.719-5.545 C2558.281,713.447,2558.306,573.148,2558.306,432.849z"/> </svg>